<svg width="512" height="512" viewBox="0 0 512 512" fill="none" xmlns="http://www.w3.org/2000/svg">
<path d="M0 100.392C0 44.9471 44.9471 0 100.392 0H411.608C467.053 0 512 44.9471 512 100.392V411.608C512 467.053 467.053 512 411.608 512H100.392C44.9471 512 0 467.053 0 411.608V100.392Z" fill="#171717"/>
<path d="M142.222 63.5817C142.222 62.6576 142.971 61.9085 143.895 61.9085H207.477C208.401 61.9085 209.15 62.6576 209.15 63.5817V127.163C209.15 128.087 208.401 128.837 207.477 128.837H143.895C142.971 128.837 142.222 128.087 142.222 127.163V63.5817Z" fill="#D9D9D9"/>
<path d="M222.536 63.5817C222.536 62.6576 223.285 61.9085 224.209 61.9085H287.791C288.715 61.9085 289.464 62.6576 289.464 63.5817V127.163C289.464 128.087 288.715 128.837 287.791 128.837H224.209C223.285 128.837 222.536 128.087 222.536 127.163V63.5817Z" fill="#D9D9D9"/>
<path d="M302.85 63.5817C302.85 62.6576 303.599 61.9085 304.523 61.9085H368.105C369.029 61.9085 369.778 62.6576 369.778 63.5817V127.163C369.778 128.087 369.029 128.837 368.105 128.837H304.523C303.599 128.837 302.85 128.087 302.85 127.163V63.5817Z" fill="#D9D9D9"/>
<path d="M383.163 63.5817C383.163 62.6576 383.913 61.9085 384.837 61.9085H448.418C449.342 61.9085 450.092 62.6576 450.092 63.5817V127.163C450.092 128.087 449.342 128.837 448.418 128.837H384.837C383.913 128.837 383.163 128.087 383.163 127.163V63.5817Z" fill="#D9D9D9"/>
<path d="M383.163 143.895C383.163 142.971 383.913 142.222 384.837 142.222H448.418C449.342 142.222 450.092 142.971 450.092 143.895V207.477C450.092 208.401 449.342 209.15 448.418 209.15H384.837C383.913 209.15 383.163 208.401 383.163 207.477V143.895Z" fill="#D9D9D9"/>
<path d="M383.163 224.209C383.163 223.285 383.913 222.536 384.837 222.536H448.418C449.342 222.536 450.092 223.285 450.092 224.209V287.791C450.092 288.715 449.342 289.464 448.418 289.464H384.837C383.913 289.464 383.163 288.715 383.163 287.791V224.209Z" fill="#D9D9D9"/>
<path d="M383.163 304.523C383.163 303.599 383.913 302.85 384.837 302.85H448.418C449.342 302.85 450.092 303.599 450.092 304.523V368.105C450.092 369.029 449.342 369.778 448.418 369.778H384.837C383.913 369.778 383.163 369.029 383.163 368.105V304.523Z" fill="#D9D9D9"/>
<path d="M61.9085 143.895C61.9085 142.971 62.6576 142.222 63.5817 142.222H127.163C128.087 142.222 128.837 142.971 128.837 143.895V207.477C128.837 208.401 128.087 209.15 127.163 209.15H63.5817C62.6576 209.15 61.9085 208.401 61.9085 207.477V143.895Z" fill="#D9D9D9"/>
<path d="M61.9085 224.209C61.9085 223.285 62.6576 222.536 63.5817 222.536H127.163C128.087 222.536 128.837 223.285 128.837 224.209V287.791C128.837 288.715 128.087 289.464 127.163 289.464H63.5817C62.6576 289.464 61.9085 288.715 61.9085 287.791V224.209Z" fill="#D9D9D9"/>
<path d="M61.9085 304.523C61.9085 303.599 62.6576 302.85 63.5817 302.85H127.163C128.087 302.85 128.837 303.599 128.837 304.523V368.105C128.837 369.029 128.087 369.778 127.163 369.778H63.5817C62.6576 369.778 61.9085 369.029 61.9085 368.105V304.523Z" fill="#D9D9D9"/>
<path d="M61.9085 384.837C61.9085 383.913 62.6576 383.163 63.5817 383.163H127.163C128.087 383.163 128.837 383.913 128.837 384.837V448.418C128.837 449.342 128.087 450.092 127.163 450.092H63.5817C62.6576 450.092 61.9085 449.342 61.9085 448.418V384.837Z" fill="#D9D9D9"/>
<path d="M142.222 384.837C142.222 383.913 142.971 383.163 143.895 383.163H207.477C208.401 383.163 209.15 383.913 209.15 384.837V448.418C209.15 449.342 208.401 450.092 207.477 450.092H143.895C142.971 450.092 142.222 449.342 142.222 448.418V384.837Z" fill="#D9D9D9"/>
<path d="M222.536 384.837C222.536 383.913 223.285 383.163 224.209 383.163H287.791C288.715 383.163 289.464 383.913 289.464 384.837V448.418C289.464 449.342 288.715 450.092 287.791 450.092H224.209C223.285 450.092 222.536 449.342 222.536 448.418V384.837Z" fill="#D9D9D9"/>
<path d="M302.85 384.837C302.85 383.913 303.599 383.163 304.523 383.163H368.105C369.029 383.163 369.778 383.913 369.778 384.837V448.418C369.778 449.342 369.029 450.092 368.105 450.092H304.523C303.599 450.092 302.85 449.342 302.85 448.418V384.837Z" fill="#D9D9D9"/>
<path d="M155.608 157.281C155.608 156.357 156.357 155.608 157.281 155.608H214.17C215.094 155.608 215.843 156.357 215.843 157.281V214.17C215.843 215.094 215.094 215.843 214.17 215.843H157.281C156.357 215.843 155.608 215.094 155.608 214.17V157.281Z" fill="#737373"/>
<path d="M225.882 157.281C225.882 156.357 226.631 155.608 227.556 155.608H284.444C285.369 155.608 286.118 156.357 286.118 157.281V214.17C286.118 215.094 285.369 215.843 284.444 215.843H227.556C226.631 215.843 225.882 215.094 225.882 214.17V157.281Z" fill="#737373"/>
<path d="M296.157 157.281C296.157 156.357 296.906 155.608 297.83 155.608H354.719C355.643 155.608 356.392 156.357 356.392 157.281V214.17C356.392 215.094 355.643 215.843 354.719 215.843H297.83C296.906 215.843 296.157 215.094 296.157 214.17V157.281Z" fill="#737373"/>
<path d="M225.882 297.83C225.882 296.906 226.631 296.157 227.556 296.157H284.444C285.369 296.157 286.118 296.906 286.118 297.83V354.719C286.118 355.643 285.369 356.392 284.444 356.392H227.556C226.631 356.392 225.882 355.643 225.882 354.719V297.83Z" fill="#737373"/>
<path d="M155.608 227.556C155.608 226.631 156.357 225.882 157.281 225.882H214.17C215.094 225.882 215.843 226.631 215.843 227.556V284.444C215.843 285.369 215.094 286.118 214.17 286.118H157.281C156.357 286.118 155.608 285.369 155.608 284.444V227.556Z" fill="#737373"/>
<path d="M155.608 297.83C155.608 296.906 156.357 296.157 157.281 296.157H214.17C215.094 296.157 215.843 296.906 215.843 297.83V354.719C215.843 355.643 215.094 356.392 214.17 356.392H157.281C156.357 356.392 155.608 355.643 155.608 354.719V297.83Z" fill="#737373"/>
<path d="M296.157 227.556C296.157 226.631 296.906 225.882 297.83 225.882H354.719C355.643 225.882 356.392 226.631 356.392 227.556V284.444C356.392 285.369 355.643 286.118 354.719 286.118H297.83C296.906 286.118 296.157 285.369 296.157 284.444V227.556Z" fill="#737373"/>
<path d="M296.157 297.83C296.157 296.906 296.906 296.157 297.83 296.157H354.719C355.643 296.157 356.392 296.906 356.392 297.83V354.719C356.392 355.643 355.643 356.392 354.719 356.392H297.83C296.906 356.392 296.157 355.643 296.157 354.719V297.83Z" fill="#737373"/>
</svg>
