<svg width="513" height="513" viewBox="0 0 513 513" fill="none" xmlns="http://www.w3.org/2000/svg">
<path d="M106.431 2.70689C106.431 1.48806 107.419 0.5 108.638 0.5H192.5C193.719 0.5 194.707 1.48806 194.707 2.7069V86.569C194.707 87.7878 193.719 88.7759 192.5 88.7759H108.638C107.419 88.7759 106.431 87.7878 106.431 86.569V2.70689Z" fill="#D9D9D9"/>
<path d="M212.362 2.70689C212.362 1.48806 213.35 0.5 214.569 0.5H298.431C299.65 0.5 300.638 1.48806 300.638 2.7069V86.569C300.638 87.7878 299.65 88.7759 298.431 88.7759H214.569C213.35 88.7759 212.362 87.7878 212.362 86.569V2.70689Z" fill="#D9D9D9"/>
<path d="M318.293 2.70689C318.293 1.48806 319.281 0.5 320.5 0.5H404.362C405.581 0.5 406.569 1.48806 406.569 2.7069V86.569C406.569 87.7878 405.581 88.7759 404.362 88.7759H320.5C319.281 88.7759 318.293 87.7878 318.293 86.569V2.70689Z" fill="#D9D9D9"/>
<path d="M424.224 2.70689C424.224 1.48806 425.212 0.5 426.431 0.5H510.293C511.512 0.5 512.5 1.48806 512.5 2.7069V86.569C512.5 87.7878 511.512 88.7759 510.293 88.7759H426.431C425.212 88.7759 424.224 87.7878 424.224 86.569V2.70689Z" fill="#D9D9D9"/>
<path d="M424.224 108.638C424.224 107.419 425.212 106.431 426.431 106.431H510.293C511.512 106.431 512.5 107.419 512.5 108.638V192.5C512.5 193.719 511.512 194.707 510.293 194.707H426.431C425.212 194.707 424.224 193.719 424.224 192.5V108.638Z" fill="#D9D9D9"/>
<path d="M424.224 214.569C424.224 213.35 425.212 212.362 426.431 212.362H510.293C511.512 212.362 512.5 213.35 512.5 214.569V298.431C512.5 299.65 511.512 300.638 510.293 300.638H426.431C425.212 300.638 424.224 299.65 424.224 298.431V214.569Z" fill="#D9D9D9"/>
<path d="M424.224 320.5C424.224 319.281 425.212 318.293 426.431 318.293H510.293C511.512 318.293 512.5 319.281 512.5 320.5V404.362C512.5 405.581 511.512 406.569 510.293 406.569H426.431C425.212 406.569 424.224 405.581 424.224 404.362V320.5Z" fill="#D9D9D9"/>
<path d="M0.5 108.638C0.5 107.419 1.48806 106.431 2.7069 106.431H86.569C87.7878 106.431 88.7759 107.419 88.7759 108.638V192.5C88.7759 193.719 87.7878 194.707 86.569 194.707H2.70689C1.48806 194.707 0.5 193.719 0.5 192.5V108.638Z" fill="#D9D9D9"/>
<path d="M0.5 214.569C0.5 213.35 1.48806 212.362 2.7069 212.362H86.569C87.7878 212.362 88.7759 213.35 88.7759 214.569V298.431C88.7759 299.65 87.7878 300.638 86.569 300.638H2.70689C1.48806 300.638 0.5 299.65 0.5 298.431V214.569Z" fill="#D9D9D9"/>
<path d="M0.5 320.5C0.5 319.281 1.48806 318.293 2.7069 318.293H86.569C87.7878 318.293 88.7759 319.281 88.7759 320.5V404.362C88.7759 405.581 87.7878 406.569 86.569 406.569H2.70689C1.48806 406.569 0.5 405.581 0.5 404.362V320.5Z" fill="#D9D9D9"/>
<path d="M0.5 426.431C0.5 425.212 1.48806 424.224 2.7069 424.224H86.569C87.7878 424.224 88.7759 425.212 88.7759 426.431V510.293C88.7759 511.512 87.7878 512.5 86.569 512.5H2.70689C1.48806 512.5 0.5 511.512 0.5 510.293V426.431Z" fill="#D9D9D9"/>
<path d="M106.431 426.431C106.431 425.212 107.419 424.224 108.638 424.224H192.5C193.719 424.224 194.707 425.212 194.707 426.431V510.293C194.707 511.512 193.719 512.5 192.5 512.5H108.638C107.419 512.5 106.431 511.512 106.431 510.293V426.431Z" fill="#D9D9D9"/>
<path d="M212.362 426.431C212.362 425.212 213.35 424.224 214.569 424.224H298.431C299.65 424.224 300.638 425.212 300.638 426.431V510.293C300.638 511.512 299.65 512.5 298.431 512.5H214.569C213.35 512.5 212.362 511.512 212.362 510.293V426.431Z" fill="#D9D9D9"/>
<path d="M318.293 426.431C318.293 425.212 319.281 424.224 320.5 424.224H404.362C405.581 424.224 406.569 425.212 406.569 426.431V510.293C406.569 511.512 405.581 512.5 404.362 512.5H320.5C319.281 512.5 318.293 511.512 318.293 510.293V426.431Z" fill="#D9D9D9"/>
<path d="M124.086 126.293C124.086 125.074 125.074 124.086 126.293 124.086H201.328C202.546 124.086 203.534 125.074 203.534 126.293V201.328C203.534 202.546 202.546 203.534 201.328 203.534H126.293C125.074 203.534 124.086 202.546 124.086 201.328V126.293Z" fill="#737373"/>
<path d="M216.776 126.293C216.776 125.074 217.764 124.086 218.983 124.086H294.017C295.236 124.086 296.224 125.074 296.224 126.293V201.328C296.224 202.546 295.236 203.534 294.017 203.534H218.983C217.764 203.534 216.776 202.546 216.776 201.328V126.293Z" fill="#737373"/>
<path d="M309.466 126.293C309.466 125.074 310.454 124.086 311.672 124.086H386.707C387.926 124.086 388.914 125.074 388.914 126.293V201.328C388.914 202.546 387.926 203.534 386.707 203.534H311.672C310.454 203.534 309.466 202.546 309.466 201.328V126.293Z" fill="#737373"/>
<path d="M216.776 311.672C216.776 310.454 217.764 309.466 218.983 309.466H294.017C295.236 309.466 296.224 310.454 296.224 311.672V386.707C296.224 387.926 295.236 388.914 294.017 388.914H218.983C217.764 388.914 216.776 387.926 216.776 386.707V311.672Z" fill="#737373"/>
<path d="M124.086 218.983C124.086 217.764 125.074 216.776 126.293 216.776H201.328C202.546 216.776 203.534 217.764 203.534 218.983V294.017C203.534 295.236 202.546 296.224 201.328 296.224H126.293C125.074 296.224 124.086 295.236 124.086 294.017V218.983Z" fill="#737373"/>
<path d="M124.086 311.672C124.086 310.454 125.074 309.466 126.293 309.466H201.328C202.546 309.466 203.534 310.454 203.534 311.672V386.707C203.534 387.926 202.546 388.914 201.328 388.914H126.293C125.074 388.914 124.086 387.926 124.086 386.707V311.672Z" fill="#737373"/>
<path d="M309.466 218.983C309.466 217.764 310.454 216.776 311.672 216.776H386.707C387.926 216.776 388.914 217.764 388.914 218.983V294.017C388.914 295.236 387.926 296.224 386.707 296.224H311.672C310.454 296.224 309.466 295.236 309.466 294.017V218.983Z" fill="#737373"/>
<path d="M309.466 311.672C309.466 310.454 310.454 309.466 311.672 309.466H386.707C387.926 309.466 388.914 310.454 388.914 311.672V386.707C388.914 387.926 387.926 388.914 386.707 388.914H311.672C310.454 388.914 309.466 387.926 309.466 386.707V311.672Z" fill="#737373"/>
<path d="M106.431 2.70689C106.431 1.48806 107.419 0.5 108.638 0.5H192.5C193.719 0.5 194.707 1.48806 194.707 2.7069V86.569C194.707 87.7878 193.719 88.7759 192.5 88.7759H108.638C107.419 88.7759 106.431 87.7878 106.431 86.569V2.70689Z" stroke="#9F9FA9"/>
<path d="M212.362 2.70689C212.362 1.48806 213.35 0.5 214.569 0.5H298.431C299.65 0.5 300.638 1.48806 300.638 2.7069V86.569C300.638 87.7878 299.65 88.7759 298.431 88.7759H214.569C213.35 88.7759 212.362 87.7878 212.362 86.569V2.70689Z" stroke="#9F9FA9"/>
<path d="M318.293 2.70689C318.293 1.48806 319.281 0.5 320.5 0.5H404.362C405.581 0.5 406.569 1.48806 406.569 2.7069V86.569C406.569 87.7878 405.581 88.7759 404.362 88.7759H320.5C319.281 88.7759 318.293 87.7878 318.293 86.569V2.70689Z" stroke="#9F9FA9"/>
<path d="M424.224 2.70689C424.224 1.48806 425.212 0.5 426.431 0.5H510.293C511.512 0.5 512.5 1.48806 512.5 2.7069V86.569C512.5 87.7878 511.512 88.7759 510.293 88.7759H426.431C425.212 88.7759 424.224 87.7878 424.224 86.569V2.70689Z" stroke="#9F9FA9"/>
<path d="M424.224 108.638C424.224 107.419 425.212 106.431 426.431 106.431H510.293C511.512 106.431 512.5 107.419 512.5 108.638V192.5C512.5 193.719 511.512 194.707 510.293 194.707H426.431C425.212 194.707 424.224 193.719 424.224 192.5V108.638Z" stroke="#9F9FA9"/>
<path d="M424.224 214.569C424.224 213.35 425.212 212.362 426.431 212.362H510.293C511.512 212.362 512.5 213.35 512.5 214.569V298.431C512.5 299.65 511.512 300.638 510.293 300.638H426.431C425.212 300.638 424.224 299.65 424.224 298.431V214.569Z" stroke="#9F9FA9"/>
<path d="M424.224 320.5C424.224 319.281 425.212 318.293 426.431 318.293H510.293C511.512 318.293 512.5 319.281 512.5 320.5V404.362C512.5 405.581 511.512 406.569 510.293 406.569H426.431C425.212 406.569 424.224 405.581 424.224 404.362V320.5Z" stroke="#9F9FA9"/>
<path d="M0.5 108.638C0.5 107.419 1.48806 106.431 2.7069 106.431H86.569C87.7878 106.431 88.7759 107.419 88.7759 108.638V192.5C88.7759 193.719 87.7878 194.707 86.569 194.707H2.70689C1.48806 194.707 0.5 193.719 0.5 192.5V108.638Z" stroke="#9F9FA9"/>
<path d="M0.5 214.569C0.5 213.35 1.48806 212.362 2.7069 212.362H86.569C87.7878 212.362 88.7759 213.35 88.7759 214.569V298.431C88.7759 299.65 87.7878 300.638 86.569 300.638H2.70689C1.48806 300.638 0.5 299.65 0.5 298.431V214.569Z" stroke="#9F9FA9"/>
<path d="M0.5 320.5C0.5 319.281 1.48806 318.293 2.7069 318.293H86.569C87.7878 318.293 88.7759 319.281 88.7759 320.5V404.362C88.7759 405.581 87.7878 406.569 86.569 406.569H2.70689C1.48806 406.569 0.5 405.581 0.5 404.362V320.5Z" stroke="#9F9FA9"/>
<path d="M0.5 426.431C0.5 425.212 1.48806 424.224 2.7069 424.224H86.569C87.7878 424.224 88.7759 425.212 88.7759 426.431V510.293C88.7759 511.512 87.7878 512.5 86.569 512.5H2.70689C1.48806 512.5 0.5 511.512 0.5 510.293V426.431Z" stroke="#9F9FA9"/>
<path d="M106.431 426.431C106.431 425.212 107.419 424.224 108.638 424.224H192.5C193.719 424.224 194.707 425.212 194.707 426.431V510.293C194.707 511.512 193.719 512.5 192.5 512.5H108.638C107.419 512.5 106.431 511.512 106.431 510.293V426.431Z" stroke="#9F9FA9"/>
<path d="M212.362 426.431C212.362 425.212 213.35 424.224 214.569 424.224H298.431C299.65 424.224 300.638 425.212 300.638 426.431V510.293C300.638 511.512 299.65 512.5 298.431 512.5H214.569C213.35 512.5 212.362 511.512 212.362 510.293V426.431Z" stroke="#9F9FA9"/>
<path d="M318.293 426.431C318.293 425.212 319.281 424.224 320.5 424.224H404.362C405.581 424.224 406.569 425.212 406.569 426.431V510.293C406.569 511.512 405.581 512.5 404.362 512.5H320.5C319.281 512.5 318.293 511.512 318.293 510.293V426.431Z" stroke="#9F9FA9"/>
<path d="M124.086 126.293C124.086 125.074 125.074 124.086 126.293 124.086H201.328C202.546 124.086 203.534 125.074 203.534 126.293V201.328C203.534 202.546 202.546 203.534 201.328 203.534H126.293C125.074 203.534 124.086 202.546 124.086 201.328V126.293Z" stroke="#9F9FA9"/>
<path d="M216.776 126.293C216.776 125.074 217.764 124.086 218.983 124.086H294.017C295.236 124.086 296.224 125.074 296.224 126.293V201.328C296.224 202.546 295.236 203.534 294.017 203.534H218.983C217.764 203.534 216.776 202.546 216.776 201.328V126.293Z" stroke="#9F9FA9"/>
<path d="M309.466 126.293C309.466 125.074 310.454 124.086 311.672 124.086H386.707C387.926 124.086 388.914 125.074 388.914 126.293V201.328C388.914 202.546 387.926 203.534 386.707 203.534H311.672C310.454 203.534 309.466 202.546 309.466 201.328V126.293Z" stroke="#9F9FA9"/>
<path d="M216.776 311.672C216.776 310.454 217.764 309.466 218.983 309.466H294.017C295.236 309.466 296.224 310.454 296.224 311.672V386.707C296.224 387.926 295.236 388.914 294.017 388.914H218.983C217.764 388.914 216.776 387.926 216.776 386.707V311.672Z" stroke="#9F9FA9"/>
<path d="M124.086 218.983C124.086 217.764 125.074 216.776 126.293 216.776H201.328C202.546 216.776 203.534 217.764 203.534 218.983V294.017C203.534 295.236 202.546 296.224 201.328 296.224H126.293C125.074 296.224 124.086 295.236 124.086 294.017V218.983Z" stroke="#9F9FA9"/>
<path d="M124.086 311.672C124.086 310.454 125.074 309.466 126.293 309.466H201.328C202.546 309.466 203.534 310.454 203.534 311.672V386.707C203.534 387.926 202.546 388.914 201.328 388.914H126.293C125.074 388.914 124.086 387.926 124.086 386.707V311.672Z" stroke="#9F9FA9"/>
<path d="M309.466 218.983C309.466 217.764 310.454 216.776 311.672 216.776H386.707C387.926 216.776 388.914 217.764 388.914 218.983V294.017C388.914 295.236 387.926 296.224 386.707 296.224H311.672C310.454 296.224 309.466 295.236 309.466 294.017V218.983Z" stroke="#9F9FA9"/>
<path d="M309.466 311.672C309.466 310.454 310.454 309.466 311.672 309.466H386.707C387.926 309.466 388.914 310.454 388.914 311.672V386.707C388.914 387.926 387.926 388.914 386.707 388.914H311.672C310.454 388.914 309.466 387.926 309.466 386.707V311.672Z" stroke="#9F9FA9"/>
</svg>
